<svg xmlns="http://www.w3.org/2000/svg" viewBox="0 0 300 200"><defs><style>.cls-1{fill:none;stroke:red;stroke-linecap:round;stroke-linejoin:round;stroke-width:4px;}</style></defs><title>icons</title><g id="layer_2" data-name="layer 2"><path class="cls-1" d="M226.7,61.52a20,20,0,0,0-14.1-14.11C200.08,44,150,44,150,44s-50.08,0-62.6,3.29A20.49,20.49,0,0,0,73.29,61.52C70,74,70,100,70,100s0,26.1,3.29,38.48A20.06,20.06,0,0,0,87.4,152.59C100.05,156,150,156,150,156s50.08,0,62.6-3.29a20,20,0,0,0,14.1-14.1c3.3-12.52,3.3-38.49,3.3-38.49S230.13,74,226.7,61.52Z"/><path class="cls-1" d="M134.05,124l41.65-24L134.05,76Z"/></g></svg>