<svg xmlns="http://www.w3.org/2000/svg" viewBox="0 0 300 200"><defs><style>.cls-1{fill:none;stroke:#157dc3;stroke-linecap:round;stroke-linejoin:round;stroke-width:3px;}</style></defs><title>icons</title><g id="layer_3" data-name="layer 3"><path id="Blue" class="cls-1" d="M199.28,155.39a6.1,6.1,0,0,0,6.11-6.11V50.72a6.1,6.1,0,0,0-6.11-6.11H100.72a6.13,6.13,0,0,0-6.11,6.11v98.56a6.1,6.1,0,0,0,6.11,6.11Z"/><path id="f" class="cls-1" d="M171,155.39v-42.9h14.4l2.15-16.72H171V85.11c0-4.86,1.33-8.13,8.3-8.13h8.85V62a115,115,0,0,0-12.89-.65c-12.77,0-21.5,7.78-21.5,22.1V95.77H139.36v16.72H153.8v42.9Z"/></g></svg>