<svg id="layer1" xmlns="http://www.w3.org/2000/svg" viewBox="0 0 300 200"><defs><style>.cls-1{fill:none;stroke:#36ade1;stroke-linecap:round;stroke-linejoin:round;stroke-width:3px;}</style></defs><title>icons</title><path class="cls-1" d="M167.91,126.89l10.18-45.8a2.8,2.8,0,0,0-3.73-3.22L117.62,99.52a1.72,1.72,0,0,0,.11,3.25l14.69,4.47a1.35,1.35,0,0,0,1.09-.14l32-19.77a.5.5,0,0,1,.61.78l-24.82,22.44a1.47,1.47,0,0,0,.14,2.28l22.18,15.66A2.72,2.72,0,0,0,167.91,126.89Z"/><path class="cls-1" d="M140.84,111.77l-1.29,13.32a.58.58,0,0,1-1.12,0L133,107.41"/><line class="cls-1" x1="139.53" y1="125.29" x2="148.69" y2="117.88"/><circle class="cls-1" cx="150" cy="100" r="56.25"/></svg>